<?xml version="1.0" standalone="no"?>
<!DOCTYPE svg PUBLIC "-//W3C//DTD SVG 20010904//EN"
 "http://www.w3.org/TR/2001/REC-SVG-20010904/DTD/svg10.dtd">
<svg version="1.0" xmlns="http://www.w3.org/2000/svg"
 width="83.000000pt" height="96.000000pt" viewBox="0 0 83.000000 96.000000"
 preserveAspectRatio="xMidYMid meet">

<g transform="translate(0.000000,96.000000) scale(0.100000,-0.100000)"
fill="#000000" stroke="none">
<path d="M320 849 c-39 -18 -82 -49 -107 -76 l-43 -46 0 55 c0 58 -12 78 -45
78 -12 0 -26 -5 -33 -12 -17 -17 -17 -769 0 -786 17 -17 44 -15 62 4 14 13 16
52 16 267 0 139 5 268 10 288 14 51 72 114 133 144 133 65 268 31 318 -80 17
-36 19 -70 19 -310 0 -281 5 -316 43 -323 10 -2 27 4 38 14 18 16 19 33 19
280 0 333 -12 395 -92 471 -50 48 -95 63 -190 63 -72 0 -92 -4 -148 -31z"/>
</g>
</svg>
